P3
48 48 255
254 254 188
254 254 188
254 254 188
254 254 188
254 254 188
254 254 188
254 254 188
254 254 188
254 254 188
254 254 188
254 254 188
254 254 188
254 254 188
254 254 188
254 254 188
254 254 188
254 254 188
254 254 188
254 254 188
254 254 188
254 254 188
254 254 188
254 254 188
254 254 188
254 254 188
254 254 188
254 254 188
254 254 188
254 254 188
254 254 188
254 254 188
254 254 188
254 254 188
254 254 188
254 254 188
254 254 188
254 254 188
254 254 188
254 254 188
254 254 188
254 254 188
254 254 188
254 254 188
254 254 188
254 254 188
254 254 188
254 254 188
254 254 188
254 254 188
254 254 188
254 254 188
254 254 188
254 254 188
254 254 188
254 254 188
254 254 188
254 254 188
254 254 188
254 254 188
254 254 188
254 254 188
254 254 188
254 254 188
254 254 188
254 254 188
254 254 188
254 254 188
254 254 188
254 254 188
254 254 188
254 254 188
254 254 188
254 254 188
254 254 188
254 254 188
254 254 188
254 254 188
254 254 188
254 254 188
254 254 188
254 254 188
254 254 188
254 254 188
254 254 188
254 254 188
254 254 188
254 254 188
254 254 188
254 254 188
254 254 188
254 254 188
254 254 188
254 254 188
254 254 188
254 254 188
254 254 188
254 254 188
254 254 188
254 254 188
254 254 188
254 254 188
254 254 188
254 254 188
254 254 188
254 254 188
254 254 188
254 254 188
254 254 188
254 254 188
254 254 188
254 254 188
254 254 188
254 254 188
254 254 188
254 254 188
254 254 188
254 254 188
254 254 188
254 254 188
254 254 188
254 254 188
254 254 188
254 254 188
254 254 188
254 254 188
254 254 188
254 254 188
254 254 188
254 254 188
254 254 188
254 254 188
254 254 188
254 254 188
254 254 188
254 254 188
254 254 188
254 254 188
254 254 188
254 254 188
254 254 188
254 254 188
254 254 188
254 254 188
254 254 188
254 254 188
254 254 188
254 254 188
254 254 188
254 254 188
254 254 188
254 254 188
254 254 188
254 254 188
254 254 188
254 254 188
254 254 188
254 254 188
254 254 188
254 254 188
254 254 188
254 254 188
254 254 188
254 254 188
254 254 188
254 254 188
254 254 188
254 254 188
254 254 188
254 254 188
254 254 188
254 254 188
254 254 188
254 254 188
254 254 188
254 254 188
254 254 188
254 254 188
254 254 188
254 254 188
254 254 188
254 254 188
254 254 188
254 254 188
254 254 188
254 254 188
254 254 188
254 254 188
254 254 188
254 254 188
254 254 188
254 254 188
254 254 188
254 254 188
254 254 188
254 254 188
254 254 188
254 254 188
254 254 188
254 254 188
254 254 188
254 254 188
254 254 188
254 254 188
254 254 188
254 254 188
254 254 188
254 254 188
254 254 188
254 254 188
254 254 188
254 254 188
254 254 188
254 254 188
254 254 188
254 254 188
254 254 188
254 254 188
254 254 188
254 254 188
254 254 188
254 254 188
254 254 188
254 254 188
254 254 188
254 254 188
254 254 188
254 254 188
254 254 188
254 254 188
254 254 188
254 254 188
254 254 188
254 254 188
254 254 188
254 254 188
254 254 188
254 254 188
254 254 188
254 254 188
254 254 188
254 254 188
254 254 188
254 254 188
254 254 188
254 254 188
254 254 188
254 254 188
254 254 188
254 254 188
254 254 188
254 254 188
254 254 188
254 254 188
254 254 188
254 254 188
254 254 188
254 254 188
254 254 188
254 254 188
254 254 188
254 254 188
254 254 188
254 254 188
222 222 156
250 250 184
254 254 188
254 254 188
254 254 188
254 254 188
254 254 188
254 254 188
254 254 188
254 254 188
254 254 188
254 254 188
254 254 188
254 254 188
254 254 188
254 254 188
254 254 188
254 254 188
254 254 188
254 254 188
254 254 188
254 254 188
254 254 188
254 254 188
254 254 188
254 254 188
254 254 188
254 254 188
254 254 188
254 254 188
254 254 188
254 254 188
254 254 188
254 254 188
206 210 137
138 144 69
114 126 44
107 118 36
147 155 77
246 246 180
254 254 188
254 254 188
254 254 188
254 254 188
254 254 188
254 254 188
254 254 188
174 170 96
98 92 10
77 77 11
246 246 180
254 254 188
254 254 188
254 254 188
254 254 188
254 254 188
254 254 188
254 254 188
254 254 188
254 254 188
254 254 188
254 254 188
254 254 188
254 254 188
254 254 188
254 254 188
254 254 188
254 254 188
254 254 188
254 254 188
254 254 188
254 254 188
254 254 188
254 254 188
254 254 188
254 254 188
254 254 188
254 254 188
254 254 188
254 254 188
254 254 188
182 190 116
101 114 30
114 130 36
138 150 56
129 146 42
101 114 30
101 114 30
182 186 112
254 254 188
254 254 188
254 254 188
254 254 188
254 254 188
254 254 188
126 122 15
42 42 0
82 82 16
238 238 172
254 254 188
254 254 188
254 254 188
254 254 188
254 254 188
254 254 188
254 254 188
254 254 188
254 254 188
254 254 188
254 254 188
254 254 188
254 254 188
254 254 188
254 254 188
254 254 188
254 254 188
254 254 188
254 254 188
254 254 188
254 254 188
254 254 188
254 254 188
254 254 188
254 254 188
254 254 188
254 254 188
254 254 188
254 254 188
242 242 176
99 110 28
107 118 36
134 150 48
138 150 56
128 142 46
141 158 50
130 150 44
101 114 30
182 190 116
254 254 188
254 254 188
254 254 188
254 254 188
226 226 158
98 92 10
22 22 0
190 190 124
254 254 188
254 254 188
254 254 188
254 254 188
254 254 188
254 254 188
254 254 188
254 254 188
254 254 188
254 254 188
254 254 188
254 254 188
254 254 188
254 254 188
254 254 188
254 254 188
254 254 188
254 254 188
254 254 188
254 254 188
254 254 188
254 254 188
254 254 188
254 254 188
254 254 188
254 254 188
254 254 188
254 254 188
254 254 188
254 254 188
106 116 26
106 122 32
129 146 42
120 134 40
114 130 36
112 126 32
110 121 32
112 126 32
112 126 37
99 110 28
182 186 112
254 254 188
254 254 188
254 254 188
162 158 80
30 30 0
63 63 0
254 254 188
254 254 188
254 254 188
254 254 188
254 254 188
254 254 188
254 254 188
254 254 188
254 254 188
254 254 188
254 254 188
254 254 188
254 254 188
254 254 188
254 254 188
254 254 188
254 254 188
254 254 188
254 254 188
254 254 188
254 254 188
254 254 188
254 254 188
254 254 188
254 254 188
254 254 188
254 254 188
254 254 188
254 254 188
254 254 188
130 142 60
101 114 30
139 150 36
114 130 36
118 130 40
122 138 40
150 166 56
141 158 50
150 166 56
150 166 56
129 146 42
99 110 28
142 151 66
254 254 188
254 254 188
126 118 40
30 30 0
190 190 124
254 254 188
254 254 188
254 254 188
254 254 188
254 254 188
254 254 188
254 254 188
254 254 188
254 254 188
254 254 188
254 254 188
254 254 188
254 254 188
254 254 188
254 254 188
254 254 188
254 254 188
254 254 188
254 254 188
254 254 188
254 254 188
254 254 188
254 254 188
254 254 188
254 254 188
254 254 188
254 254 188
254 254 188
254 254 188
222 222 148
101 114 30
129 146 42
114 130 36
122 138 40
146 162 56
114 130 36
122 138 40
112 126 32
96 108 24
96 108 24
99 110 28
96 108 24
96 108 24
130 138 60
254 254 188
104 102 32
42 42 0
254 254 188
254 254 188
254 254 188
210 210 142
190 190 88
190 190 124
190 190 124
203 202 124
254 254 188
254 254 188
254 254 188
254 254 188
254 254 188
254 254 188
254 254 188
254 254 188
254 254 188
254 254 188
254 254 188
254 254 188
254 254 188
254 254 188
254 254 188
254 254 188
254 254 188
254 254 188
254 254 188
254 254 188
254 254 188
254 254 188
121 133 48
114 130 36
118 130 40
130 150 44
106 122 32
146 162 56
107 118 36
101 114 30
107 118 36
130 138 60
201 202 134
234 234 167
222 222 156
138 144 69
96 108 24
130 138 60
106 102 24
118 118 52
254 254 188
206 206 124
150 146 32
142 133 25
140 126 22
134 126 20
126 122 15
120 118 10
114 114 8
130 130 36
154 154 68
226 226 158
254 254 188
254 254 188
254 254 188
254 254 188
254 254 188
254 254 188
254 254 188
254 254 188
254 254 188
254 254 188
254 254 188
254 254 188
254 254 188
254 254 188
254 254 188
254 254 188
254 254 188
203 206 137
107 118 36
118 130 40
122 138 40
134 150 48
114 126 44
138 144 69
138 144 69
182 182 116
246 246 180
254 254 188
254 254 188
254 254 188
254 254 188
254 254 188
182 186 112
114 122 44
118 118 52
138 144 69
182 172 72
150 142 40
154 142 31
150 146 32
150 142 40
148 142 30
147 134 25
140 126 22
130 125 17
120 118 10
122 114 12
104 106 2
122 126 32
203 202 124
254 254 188
254 254 188
254 254 188
254 254 188
254 254 188
254 254 188
254 254 188
254 254 188
254 254 188
254 254 188
254 254 188
254 254 188
254 254 188
254 254 188
254 254 188
110 121 32
120 134 40
141 158 50
121 133 48
110 121 32
118 130 40
146 162 56
234 234 167
254 254 188
217 218 143
170 165 72
137 130 20
147 134 25
147 134 25
137 130 20
166 158 42
170 165 72
158 150 52
150 142 40
161 150 37
158 158 43
165 154 41
166 158 42
165 154 41
161 150 37
158 146 35
154 138 30
147 134 25
137 130 20
126 126 20
114 114 8
102 102 0
90 94 0
127 133 48
226 226 158
254 254 188
254 254 188
254 254 188
254 254 188
254 254 188
254 254 188
254 254 188
254 254 188
254 254 188
254 254 188
254 254 188
254 254 188
182 190 108
120 134 40
128 142 46
107 118 36
112 122 40
147 155 77
230 230 163
254 254 188
230 230 163
166 155 57
147 134 25
154 142 31
166 150 38
165 154 41
165 154 41
165 154 41
165 154 41
170 158 46
170 158 46
172 162 48
174 166 50
172 162 48
181 170 57
172 162 48
166 158 42
165 154 41
161 150 37
158 146 35
154 142 31
138 138 26
137 130 20
130 125 17
114 114 8
102 102 0
90 94 0
98 102 0
203 206 137
254 254 188
254 254 188
254 254 188
254 254 188
254 254 188
254 254 188
254 254 188
254 254 188
254 254 188
254 254 188
254 254 188
138 150 56
118 130 40
112 122 40
182 186 112
242 242 176
254 254 188
254 254 188
230 230 163
150 142 40
154 138 30
166 150 38
166 155 57
170 158 46
186 174 64
188 178 66
178 166 54
178 166 54
181 170 57
181 170 57
181 170 57
186 174 64
178 174 58
182 174 60
182 174 60
172 162 48
170 158 46
165 154 41
166 150 38
158 146 35
154 138 30
142 133 25
130 125 17
114 114 8
104 106 2
98 98 0
78 82 0
87 90 0
182 186 112
254 254 188
254 254 188
254 254 188
254 254 188
254 254 188
254 254 188
254 254 188
254 254 188
254 254 188
206 210 137
118 130 40
198 198 131
254 254 188
254 254 188
254 254 188
254 254 188
254 254 188
154 138 30
158 146 35
170 158 46
186 174 64
204 197 100
223 218 131
217 210 120
217 210 120
194 186 75
188 178 66
188 178 66
188 178 66
188 178 66
186 182 69
188 178 66
182 178 64
181 170 57
170 170 50
172 162 48
170 158 46
166 150 38
166 150 38
154 142 31
147 138 27
137 130 20
120 118 10
104 106 2
98 98 0
82 86 0
73 82 0
78 82 0
230 230 163
254 254 188
254 254 188
254 254 188
254 254 188
254 254 188
254 254 188
254 254 188
254 254 188
206 210 137
203 206 137
254 254 188
254 254 188
254 254 188
254 254 188
254 254 188
182 178 88
158 146 35
170 158 46
202 194 91
223 218 131
234 234 167
226 222 137
217 210 120
211 207 109
194 182 73
194 182 73
194 182 73
190 182 71
194 182 73
190 182 71
186 182 69
182 178 64
182 174 60
174 170 52
172 162 48
166 158 42
165 154 41
161 150 37
161 150 37
147 138 27
137 130 20
130 125 17
114 114 8
102 102 0
87 90 0
78 82 0
78 82 0
114 122 24
254 254 188
254 254 188
254 254 188
254 254 188
254 254 188
254 254 188
254 254 188
254 254 188
254 254 188
254 254 188
254 254 188
254 254 188
254 254 188
254 254 188
218 218 152
154 146 34
166 155 57
194 182 73
220 214 126
230 226 144
230 226 144
220 214 126
209 202 105
198 190 86
194 186 75
198 190 86
194 186 75
194 182 73
190 182 71
190 182 71
186 182 69
188 178 66
178 174 58
170 170 50
170 166 49
163 162 43
166 158 42
165 154 41
158 146 35
154 142 31
147 138 27
140 126 22
120 118 10
104 106 2
90 94 0
78 82 0
78 82 0
87 90 0
182 186 112
254 254 188
254 254 188
254 254 188
254 254 188
254 254 188
254 254 188
254 254 188
254 254 188
254 254 188
254 254 188
254 254 188
254 254 188
254 254 188
166 155 57
161 150 37
172 162 48
209 202 105
223 218 131
230 226 144
220 214 126
226 222 137
198 190 86
198 190 86
209 202 105
198 194 90
194 190 79
194 186 75
194 186 75
194 186 75
186 182 69
182 178 64
178 174 58
170 170 50
170 166 49
163 162 43
166 158 42
154 154 37
158 146 35
148 142 30
142 133 25
140 126 22
120 122 13
114 114 8
94 102 0
82 86 0
78 82 0
78 86 0
110 114 8
254 254 188
254 254 188
254 254 188
254 254 188
254 254 188
254 254 188
254 254 188
254 254 188
254 254 188
254 254 188
254 254 188
254 254 188
218 214 144
150 142 40
170 158 46
186 174 64
220 214 126
223 218 131
220 214 126
223 218 131
206 198 96
202 194 91
206 198 96
206 198 96
194 186 75
194 186 75
194 186 75
190 186 72
186 182 69
186 182 69
182 178 64
174 174 54
170 170 50
163 162 43
166 158 42
158 154 39
154 150 35
154 146 34
148 142 30
142 133 25
134 126 20
126 122 15
114 114 8
98 98 0
82 86 0
73 82 0
78 82 0
74 82 0
254 254 188
254 254 188
254 254 188
254 254 188
254 254 188
254 254 188
254 254 188
254 254 188
254 254 188
254 254 188
254 254 188
254 254 188
170 165 72
154 142 31
170 158 46
202 194 91
223 218 131
223 218 131
220 214 126
209 202 105
211 207 109
202 194 91
198 194 90
198 194 90
194 190 79
194 186 75
194 186 75
190 186 72
186 182 69
182 178 64
182 174 60
174 170 52
170 166 49
166 166 46
158 162 40
158 154 39
154 150 35
154 142 31
148 142 30
135 134 24
140 126 22
120 118 10
110 118 7
98 102 0
82 86 0
73 82 0
73 82 0
73 82 0
254 254 188
254 254 188
254 254 188
254 254 188
254 254 188
254 254 188
254 254 188
254 254 188
254 254 188
254 254 188
254 254 188
254 254 188
138 138 26
158 154 39
170 166 49
202 198 96
217 210 120
217 210 120
209 202 105
211 207 109
198 194 90
198 190 86
198 194 90
194 190 79
194 190 79
190 186 72
190 186 72
190 182 71
186 182 69
182 178 64
174 174 54
174 170 52
166 170 49
166 166 46
163 162 43
158 154 39
150 146 32
150 146 32
138 138 26
137 130 20
126 122 15
120 122 13
111 110 5
98 102 0
82 86 0
73 82 0
66 74 0
69 78 0
254 254 188
254 254 188
254 254 188
254 254 188
254 254 188
254 254 188
254 254 188
254 254 188
254 254 188
254 254 188
254 254 188
230 230 163
147 138 27
158 154 39
170 166 49
203 202 124
211 207 109
206 198 96
206 198 96
202 198 96
199 194 84
198 190 86
199 194 84
190 186 78
194 186 75
190 186 72
190 186 72
186 182 69
182 178 64
174 174 54
174 170 52
170 166 49
166 166 46
163 162 43
153 158 38
154 154 37
146 150 32
148 142 30
142 133 25
137 130 20
130 125 17
120 118 10
110 114 8
98 102 0
82 86 0
74 78 0
70 74 0
69 78 0
254 254 188
254 254 188
254 254 188
254 254 188
254 254 188
254 254 188
254 254 188
254 254 188
254 254 188
254 254 188
254 254 188
203 202 124
139 142 28
158 150 52
172 162 48
206 198 96
206 198 96
198 194 90
198 194 90
194 190 84
190 186 78
194 190 84
194 186 75
190 186 72
190 186 72
186 182 69
186 182 69
182 178 64
182 174 60
174 174 54
170 170 50
166 166 46
166 166 46
158 162 40
158 154 39
146 150 32
150 146 32
147 138 27
135 134 24
137 130 20
126 122 15
114 118 10
104 110 3
89 98 0
82 86 0
73 82 0
66 74 0
70 74 0
254 254 188
254 254 188
254 254 188
254 254 188
254 254 188
254 254 188
254 254 188
254 254 188
254 254 188
254 254 188
254 254 188
203 202 124
148 142 30
158 154 39
170 166 49
194 190 84
194 190 84
194 190 84
198 194 90
190 186 72
190 186 78
190 186 78
190 186 78
186 182 69
186 182 69
178 178 62
182 178 64
178 178 62
174 174 54
170 170 50
170 170 50
166 166 46
163 162 43
153 158 38
154 154 37
150 146 32
142 146 30
138 138 26
134 138 24
130 130 21
120 122 13
114 114 8
104 106 2
87 90 0
73 82 0
69 78 0
66 74 0
110 114 24
254 254 188
254 254 188
254 254 188
254 254 188
254 254 188
254 254 188
254 254 188
254 254 188
254 254 188
254 254 188
254 254 188
203 202 124
138 138 26
154 154 37
170 165 72
186 182 76
190 190 88
194 190 84
186 182 76
190 186 78
186 182 69
186 182 69
186 182 69
186 182 69
178 174 58
182 178 64
178 178 62
174 174 54
174 174 54
170 170 50
166 166 46
166 166 46
158 162 40
158 154 39
150 154 35
146 150 32
134 142 24
138 138 26
135 134 24
122 126 16
120 122 13
111 110 5
94 98 0
82 90 0
74 78 0
69 78 0
66 70 0
142 151 66
254 254 188
254 254 188
254 254 188
254 254 188
254 254 188
254 254 188
254 254 188
254 254 188
254 254 188
254 254 188
254 254 188
218 214 144
138 138 26
150 150 36
163 162 43
178 174 58
190 186 78
190 186 78
178 178 62
178 178 62
178 178 62
182 178 64
178 178 62
178 178 62
178 178 62
174 174 54
174 174 54
174 170 52
174 174 54
166 166 46
166 166 46
158 162 40
153 158 38
146 150 32
146 146 31
148 142 30
134 142 24
135 134 24
130 130 21
122 126 16
114 118 10
104 106 2
90 94 0
78 82 0
69 78 0
62 70 0
62 70 0
194 196 122
254 254 188
254 254 188
254 254 188
254 254 188
254 254 188
254 254 188
254 254 188
254 254 188
254 254 188
254 254 188
254 254 188
254 254 188
135 134 24
148 142 30
158 158 43
164 166 68
174 174 61
186 182 76
178 178 62
172 170 60
174 174 61
174 174 61
178 174 58
174 174 54
174 170 52
174 174 54
174 174 54
174 174 54
170 170 50
166 170 49
162 166 45
158 162 40
154 154 37
146 146 31
142 146 30
134 142 24
135 134 24
126 134 19
126 130 19
120 122 13
106 114 4
94 98 0
82 90 0
78 86 0
70 74 0
66 70 0
78 86 0
254 254 188
254 254 188
254 254 188
254 254 188
254 254 188
254 254 188
254 254 188
254 254 188
254 254 188
254 254 188
254 254 188
254 254 188
254 254 188
164 166 68
138 138 26
150 150 36
158 158 43
170 165 72
172 170 60
174 174 61
170 170 50
170 170 50
170 170 50
174 170 52
174 174 54
174 174 54
174 174 54
170 170 50
166 170 49
158 162 40
162 166 45
153 158 38
150 154 35
146 150 32
142 146 30
134 142 24
134 138 24
126 134 19
126 130 19
122 126 16
106 114 4
104 110 3
94 98 0
82 86 0
66 74 0
62 74 0
62 70 0
142 151 66
254 254 188
254 254 188
254 254 188
254 254 188
254 254 188
254 254 188
254 254 188
254 254 188
254 254 188
254 254 188
254 254 188
254 254 188
254 254 188
214 214 147
130 130 21
146 146 31
150 154 35
158 162 40
163 162 49
163 162 49
163 162 49
166 166 46
170 170 50
166 170 49
166 166 46
166 166 46
166 170 49
166 170 49
162 166 45
166 166 46
153 158 38
153 158 38
150 154 35
146 150 32
142 146 30
138 138 26
126 134 19
130 130 21
122 126 16
114 122 11
104 106 2
98 98 0
78 86 0
73 82 0
66 74 0
62 74 0
62 70 0
222 222 148
254 254 188
254 254 188
254 254 188
254 254 188
254 254 188
254 254 188
254 254 188
254 254 188
254 254 188
254 254 188
254 254 188
254 254 188
254 254 188
254 254 188
138 138 26
134 138 24
139 142 28
150 154 35
154 154 37
158 162 40
158 158 43
158 162 40
158 162 40
162 166 45
162 166 45
166 166 46
162 166 45
163 162 43
158 162 40
153 158 38
153 158 38
150 154 35
146 150 32
138 146 29
134 142 24
134 142 24
126 130 19
120 122 13
110 118 7
111 110 5
98 102 0
89 98 0
78 86 0
69 78 0
62 66 0
62 70 0
130 130 36
254 254 188
254 254 188
254 254 188
254 254 188
254 254 188
254 254 188
254 254 188
254 254 188
254 254 188
254 254 188
254 254 188
254 254 188
254 254 188
254 254 188
254 254 188
218 218 152
135 134 24
138 138 26
139 142 28
146 150 32
150 150 36
154 154 37
158 158 43
158 158 43
153 158 38
158 162 40
158 162 40
158 162 40
158 162 40
153 158 38
153 158 38
146 146 31
146 150 32
134 142 24
130 138 23
126 134 19
122 130 17
118 126 15
110 118 7
104 110 3
98 106 1
89 98 0
82 90 0
73 82 0
66 74 0
62 66 0
62 66 0
222 222 148
254 254 188
254 254 188
254 254 188
254 254 188
254 254 188
254 254 188
254 254 188
254 254 188
254 254 188
254 254 188
254 254 188
254 254 188
254 254 188
254 254 188
254 254 188
254 254 188
164 166 68
126 130 19
135 134 24
134 138 24
138 146 29
139 150 36
146 150 32
150 154 35
154 154 37
150 154 35
150 154 35
153 158 38
150 154 35
146 150 32
139 150 36
134 142 24
134 142 24
130 138 23
122 130 17
122 126 16
114 118 10
106 114 4
104 110 3
94 102 0
98 102 0
89 98 0
82 90 0
73 82 0
62 70 0
62 70 0
107 118 36
222 222 148
230 230 163
246 246 180
254 254 188
254 254 188
254 254 188
254 254 188
254 254 188
254 254 188
254 254 188
254 254 188
254 254 188
254 254 188
254 254 188
254 254 188
254 254 188
254 254 188
234 234 167
135 134 24
126 130 19
126 130 19
135 134 24
138 138 26
139 142 28
138 146 29
138 146 29
138 146 29
138 146 29
138 146 29
138 146 29
134 142 24
134 142 24
130 138 23
126 130 19
122 130 17
118 126 15
114 122 11
110 118 7
106 114 4
104 110 3
98 102 0
89 98 0
86 94 0
78 86 0
66 74 0
62 70 0
69 78 0
134 134 66
154 154 88
170 170 104
190 190 124
214 214 147
238 238 172
250 250 184
254 254 188
254 254 188
254 254 188
254 254 188
254 254 188
254 254 188
254 254 188
254 254 188
254 254 188
254 254 188
254 254 188
254 254 188
234 234 167
130 134 23
118 126 15
126 130 19
126 130 19
130 130 21
130 134 23
134 138 24
126 134 19
126 134 19
122 130 17
126 134 19
122 130 17
126 130 19
122 130 17
114 122 11
110 118 7
106 114 4
110 118 7
98 106 1
104 106 2
98 106 1
90 102 0
89 98 0
82 90 0
74 78 0
62 70 0
62 70 0
38 42 0
2 2 0
22 22 0
70 70 4
114 114 48
150 150 84
178 178 112
214 214 147
238 238 172
250 250 184
254 254 188
254 254 188
254 254 188
254 254 188
254 254 188
254 254 188
254 254 188
254 254 188
254 254 188
254 254 188
254 254 188
214 214 147
130 134 23
114 118 10
120 122 13
118 126 15
120 122 13
120 122 13
122 126 16
122 126 16
118 126 15
120 122 13
110 118 7
110 118 7
104 110 3
106 114 4
104 106 2
104 106 2
98 106 1
94 102 0
90 102 0
94 102 0
90 98 0
86 94 0
78 86 0
69 78 0
66 74 0
49 55 0
2 2 0
2 2 0
2 2 0
2 2 0
6 6 0
42 42 0
106 106 40
166 166 100
198 198 131
230 230 163
254 254 188
254 254 188
254 254 188
254 254 188
254 254 188
254 254 188
254 254 188
254 254 188
254 254 188
254 254 188
254 254 188
254 254 188
230 230 163
120 122 13
106 114 4
106 114 4
106 114 4
106 114 4
106 114 4
106 114 4
104 110 3
104 110 3
98 106 1
98 106 1
94 102 0
94 102 0
90 102 0
90 102 0
94 102 0
89 98 0
89 98 0
86 94 0
86 94 0
78 86 0
73 82 0
66 74 0
56 64 0
2 2 0
2 2 0
2 2 0
2 2 0
2 2 0
2 2 0
10 10 0
15 18 0
90 90 24
166 166 100
210 210 142
254 254 188
254 254 188
254 254 188
254 254 188
254 254 188
254 254 188
254 254 188
254 254 188
254 254 188
254 254 188
254 254 188
254 254 188
246 246 180
206 210 137
110 118 7
104 110 3
104 110 3
98 106 1
104 106 2
98 102 0
98 106 1
94 98 0
90 94 0
86 94 0
86 94 0
86 94 0
89 98 0
86 94 0
89 98 0
89 98 0
86 94 0
86 94 0
78 86 0
73 82 0
73 82 0
62 66 0
2 2 0
2 2 0
2 2 0
2 2 0
2 2 0
2 2 0
2 2 0
2 2 0
15 18 0
63 63 0
150 150 84
201 202 134
254 254 188
254 254 188
254 254 188
254 254 188
254 254 188
254 254 188
254 254 188
254 254 188
254 254 188
254 254 188
254 254 188
254 254 188
238 238 172
210 210 142
118 118 52
49 55 0
94 98 0
89 98 0
89 98 0
89 98 0
86 94 0
86 94 0
89 98 0
86 94 0
89 98 0
82 90 0
89 98 0
86 94 0
86 94 0
86 94 0
86 94 0
86 94 0
78 86 0
69 78 0
46 46 0
2 2 0
2 2 0
2 2 0
2 2 0
2 2 0
2 2 0
2 2 0
2 2 0
2 2 0
63 63 0
114 114 48
162 162 96
214 214 147
254 254 188
254 254 188
254 254 188
254 254 188
254 254 188
254 254 188
254 254 188
254 254 188
254 254 188
254 254 188
254 254 188
254 254 188
238 238 172
201 202 134
158 158 92
38 42 0
14 14 0
56 64 0
86 94 0
86 94 0
82 90 0
62 70 0
14 14 0
2 2 0
2 2 0
15 18 0
49 55 0
66 74 0
73 82 0
82 90 0
82 90 0
73 82 0
49 55 0
15 18 0
2 2 0
2 2 0
2 2 0
2 2 0
2 2 0
2 2 0
2 2 0
2 2 0
10 10 0
82 82 16
118 118 52
154 154 88
198 198 131
234 234 167
254 254 188
254 254 188
254 254 188
254 254 188
254 254 188
254 254 188
254 254 188
254 254 188
254 254 188
254 254 188
254 254 188
254 254 188
246 246 180
218 218 152
178 178 112
123 126 56
56 56 0
10 10 0
2 2 0
26 26 0
26 30 0
2 2 0
2 2 0
2 2 0
2 2 0
2 2 0
2 2 0
2 2 0
2 2 0
2 2 0
2 2 0
2 2 0
2 2 0
2 2 0
2 2 0
2 2 0
2 2 0
2 2 0
2 2 0
2 2 0
10 10 0
70 70 4
110 110 44
134 134 66
166 166 100
198 198 131
234 234 167
250 250 184
254 254 188
254 254 188
254 254 188
254 254 188
254 254 188
254 254 188
254 254 188
254 254 188
254 254 188
254 254 188
254 254 188
254 254 188
254 254 188
238 238 172
218 214 144
178 178 112
150 150 84
122 122 56
70 70 4
26 30 0
10 10 0
2 2 0
2 2 0
2 2 0
2 2 0
2 2 0
2 2 0
2 2 0
2 2 0
2 2 0
2 2 0
2 2 0
2 2 0
2 2 0
2 2 0
2 2 0
2 2 0
10 10 0
42 42 0
82 82 16
114 114 48
138 138 72
162 162 96
194 194 128
218 218 152
238 238 172
250 250 184
254 254 188
254 254 188
254 254 188
254 254 188
254 254 188
254 254 188
254 254 188
254 254 188
254 254 188
254 254 188
254 254 188
254 254 188
254 254 188
254 254 188
254 254 188
246 246 180
230 230 163
214 214 147
190 190 124
166 166 100
138 138 72
114 114 48
90 90 24
56 56 0
46 46 0
46 46 0
42 42 0
42 42 0
30 30 0
26 26 0
22 22 0
10 10 0
10 10 0
15 18 0
30 30 0
56 56 0
82 82 16
106 106 40
122 122 56
123 126 56
150 150 84
174 174 108
198 198 131
222 222 156
238 238 172
250 250 184
254 254 188
254 254 188
254 254 188
254 254 188
254 254 188
254 254 188
254 254 188
254 254 188
254 254 188
254 254 188
254 254 188
254 254 188
254 254 188
254 254 188
254 254 188
254 254 188
254 254 188
254 254 188
254 254 188
250 250 184
242 242 176
226 226 158
214 214 147
201 202 134
178 178 112
162 162 96
154 154 88
150 150 84
158 158 92
162 162 96
162 162 96
158 158 92
158 158 92
166 166 100
166 166 100
178 178 112
174 174 108
174 174 108
186 186 120
182 182 116
190 190 124
194 194 128
210 210 142
226 226 158
242 242 176
250 250 184
254 254 188
254 254 188
254 254 188
254 254 188
254 254 188
254 254 188
254 254 188
254 254 188
254 254 188
254 254 188
254 254 188
254 254 188
254 254 188
254 254 188
254 254 188
254 254 188
254 254 188
254 254 188
254 254 188
254 254 188
254 254 188
254 254 188
254 254 188
254 254 188
250 250 184
242 242 176
242 242 176
230 230 163
222 222 156
218 218 152
226 226 158
222 222 156
222 222 156
222 222 156
218 218 152
226 226 158
226 226 158
234 234 167
234 234 167
234 234 167
238 238 172
238 238 172
238 238 172
246 246 180
250 250 184
254 254 188
254 254 188
254 254 188
254 254 188
254 254 188
254 254 188
254 254 188
254 254 188
254 254 188
254 254 188
254 254 188
254 254 188
254 254 188
254 254 188
254 254 188
254 254 188
254 254 188
254 254 188
254 254 188
254 254 188
254 254 188
254 254 188
254 254 188
254 254 188
254 254 188
254 254 188
254 254 188
254 254 188
254 254 188
254 254 188
254 254 188
254 254 188
254 254 188
250 250 184
250 250 184
246 246 180
250 250 184
250 250 184
254 254 188
254 254 188
254 254 188
254 254 188
254 254 188
254 254 188
254 254 188
254 254 188
254 254 188
254 254 188
254 254 188
254 254 188
254 254 188
254 254 188
254 254 188
254 254 188
254 254 188
254 254 188
